<?xml version="1.0" standalone="no"?><!DOCTYPE svg PUBLIC "-//W3C//DTD SVG 1.1//EN" "http://www.w3.org/Graphics/SVG/1.1/DTD/svg11.dtd"><svg t="1756866943835" class="icon" viewBox="0 0 1024 1024" version="1.1" xmlns="http://www.w3.org/2000/svg" p-id="1276" xmlns:xlink="http://www.w3.org/1999/xlink" width="256" height="256"><path d="M32 512C32 285.728 32 172.592 102.296 102.296 172.592 32 285.728 32 512 32s339.408 0 409.704 70.296C992 172.592 992 285.728 992 512s0 339.408-70.296 409.704C851.408 992 738.272 992 512 992S172.592 992 102.296 921.704C32 851.408 32 738.272 32 512z" fill="#FF9833" p-id="1277"></path><path d="M761.6 702.608h-187.2v35.88h124.8c17.232 0 31.2 13.752 31.2 30.744A30.96 30.96 0 0 1 699.2 800H324.8c-17.232 0-31.2-13.776-31.2-30.768a30.96 30.96 0 0 1 31.2-30.744h124.8v-35.88H262.4c-34.464 0-62.4-27.552-62.4-61.512V333.512C200 299.552 227.936 272 262.4 272h499.2c34.464 0 62.4 27.552 62.4 61.512V641.12c0 33.96-27.936 61.512-62.4 61.512z m-124.8-307.584h-187.2l60.336 59.472c-32.784 57.192-118.992 100.2-185.136 116.88 30.912 5.28 62.232 7.992 93.6 8.064a248.592 248.592 0 0 0 159.456-58.08l58.944 58.224v-184.56z" fill="#FFFFFF" p-id="1278"></path></svg>