<?xml version="1.0" standalone="no"?><!DOCTYPE svg PUBLIC "-//W3C//DTD SVG 1.1//EN" "http://www.w3.org/Graphics/SVG/1.1/DTD/svg11.dtd"><svg t="1758191158228" class="icon" viewBox="0 0 1024 1024" version="1.1" xmlns="http://www.w3.org/2000/svg" p-id="1100" xmlns:xlink="http://www.w3.org/1999/xlink" width="256" height="256"><path d="M672.18635938 23.62695312C853.44601572 23.62695312 1000.37304688 170.55398428 1000.37304688 351.81364062v320.37271876C1000.37304688 853.44601572 853.44601572 1000.37304688 672.18635938 1000.37304688H351.81364062C170.55398428 1000.37304688 23.62695312 853.44601572 23.62695312 672.18635938V351.81364062C23.62695312 170.55398428 170.55398428 23.62695312 351.81364062 23.62695312h320.37271876z m-139.84562198 194.88526436a40.70589346 40.70589346 0 0 0-40.6814748 0l-223.65043682 129.12583359a40.70589346 40.70589346 0 0 0-20.3407374 35.23611534v258.25166718c0 14.52909814 7.74071279 27.95935693 20.3407374 35.23611534l223.65043682 129.12583359a40.70589346 40.70589346 0 0 0 40.6814748 0l223.65043682-129.12583359c12.60002461-7.2767584 20.3407374-20.70701719 20.3407374-35.23611534V382.87416641c0-14.52909814-7.74071279-27.95935693-20.3407374-35.23611534zM512 286.61583887l195.15386953 112.69208056v225.33532383L512 737.33532383l-195.17828818-112.69208057v-225.33532383L512 286.61583887z m115.98859863 130.51769677L512 492.04996105l-115.98859863-74.91642541-32.62331952 47.37218555 119.18744208 77.01642949 0.02441865 112.93626709h58.80011484v-112.93626709l119.21186075-77.01642949-32.62331954-47.37218555z" fill="#0C9DFF" p-id="1101"></path></svg>